<svg width="782" height="829" xmlns="http://www.w3.org/2000/svg" xmlns:xlink="http://www.w3.org/1999/xlink" overflow="hidden"><defs><clipPath id="clip0"><rect x="2196" y="532" width="782" height="829"/></clipPath></defs><g clip-path="url(#clip0)" transform="translate(-2196 -532)"><path d="M2200 584.501C2200 555.506 2223.51 532 2252.5 532L2462.5 532C2491.49 532 2515 555.506 2515 584.501L2515 795.499C2515 824.494 2491.49 848 2462.5 848L2252.5 848C2223.51 848 2200 824.494 2200 795.499Z" fill="#548235" fill-rule="evenodd"/><path d="M2200 974.501C2200 945.505 2223.51 922 2252.5 922L2462.5 922C2491.49 922 2515 945.505 2515 974.501L2515 1185.5C2515 1214.49 2491.49 1238 2462.5 1238L2252.5 1238C2223.51 1238 2200 1214.49 2200 1185.5Z" fill="#548235" fill-rule="evenodd"/><path d="M2642.5 848C2613.51 848 2590 824.494 2590 795.499L2590 584.501C2590 555.506 2613.51 532 2642.5 532L2852.5 532C2881.49 532 2905 555.506 2905 584.501L2905 795.499C2905 824.494 2881.49 848 2852.5 848Z" fill="#548235" fill-rule="evenodd"/><path d="M2239 611.501C2239 589.685 2256.68 572 2278.5 572L2436.5 572C2458.31 572 2476 589.685 2476 611.501L2476 769.5C2476 791.315 2458.31 809 2436.5 809L2278.5 809C2256.68 809 2239 791.315 2239 769.5Z" stroke="#FFFFFF" stroke-width="27.5" stroke-miterlimit="8" fill="#548235" fill-rule="evenodd"/><text fill="#FFFFFF" font-family="Yu Gothic UI,Yu Gothic UI_MSFontService,sans-serif" font-weight="700" font-size="165" transform="matrix(1 0 0 1 2295.19 752)">Q</text><path d="M2629 611.501C2629 589.685 2646.69 572 2668.5 572L2826.5 572C2848.31 572 2866 589.685 2866 611.501L2866 769.499C2866 791.315 2848.31 809 2826.5 809L2668.5 809C2646.69 809 2629 791.315 2629 769.499Z" stroke="#FFFFFF" stroke-width="27.5" stroke-miterlimit="8" fill="#548235" fill-rule="evenodd"/><text fill="#FFFFFF" font-family="Yu Gothic UI,Yu Gothic UI_MSFontService,sans-serif" font-weight="700" font-size="165" transform="matrix(1 0 0 1 2696.12 752)">R</text><path d="M2239 1000.5C2239 978.685 2256.68 961 2278.5 961L2436.5 961C2458.31 961 2476 978.685 2476 1000.5L2476 1158.5C2476 1180.32 2458.31 1198 2436.5 1198L2278.5 1198C2256.68 1198 2239 1180.32 2239 1158.5Z" stroke="#FFFFFF" stroke-width="27.5" stroke-miterlimit="8" fill="#548235" fill-rule="evenodd"/><text fill="#FFFFFF" font-family="Yu Gothic UI,Yu Gothic UI_MSFontService,sans-serif" font-weight="700" font-size="165" transform="matrix(1 0 0 1 2309.51 1142)">P<tspan fill="#548235" font-size="165" x="334.19" y="-83">i</tspan><tspan fill="#548235" font-size="165" x="490.174" y="-83">r</tspan><tspan fill="#548235" font-size="165" x="306.404" y="83">o</tspan><tspan fill="#548235" font-size="165" x="472.7" y="83">n</tspan></text></g></svg>