<svg width="782" height="831" xmlns="http://www.w3.org/2000/svg" xmlns:xlink="http://www.w3.org/1999/xlink" overflow="hidden"><defs><clipPath id="clip0"><rect x="705" y="530" width="782" height="831"/></clipPath></defs><g clip-path="url(#clip0)" transform="translate(-705 -530)"><path d="M709.5 585.168C709.5 556.08 733.08 532.5 762.168 532.5L972.832 532.5C1001.92 532.5 1025.5 556.08 1025.5 585.168L1025.5 795.832C1025.5 824.92 1001.92 848.5 972.832 848.5L762.168 848.5C733.08 848.5 709.5 824.92 709.5 795.832Z" stroke="#FFFFFF" stroke-width="4.58333" stroke-miterlimit="8" fill="none" fill-rule="evenodd"/><path d="M709.5 975.168C709.5 946.08 733.08 922.5 762.168 922.5L972.832 922.5C1001.92 922.5 1025.5 946.08 1025.5 975.168L1025.5 1185.83C1025.5 1214.92 1001.92 1238.5 972.832 1238.5L762.168 1238.5C733.08 1238.5 709.5 1214.92 709.5 1185.83Z" stroke="#FFFFFF" stroke-width="4.58333" stroke-miterlimit="8" fill="none" fill-rule="evenodd"/><path d="M1152 848.5C1123.01 848.5 1099.5 824.994 1099.5 795.999L1099.5 585.001C1099.5 556.005 1123.01 532.5 1152 532.5L1362 532.5C1390.99 532.5 1414.5 556.005 1414.5 585.001L1414.5 795.999C1414.5 824.994 1390.99 848.5 1362 848.5Z" stroke="#FFFFFF" stroke-width="4.58333" stroke-miterlimit="8" fill="none" fill-rule="evenodd"/><path d="M749 611.334C749 589.61 766.611 572 788.334 572L945.666 572C967.389 572 985 589.61 985 611.334L985 769.666C985 791.389 967.389 809 945.666 809L788.334 809C766.611 809 749 791.389 749 769.666Z" stroke="#FFFFFF" stroke-width="27.5" stroke-miterlimit="8" fill="none" fill-rule="evenodd"/><text fill="#FFFFFF" font-family="Yu Gothic UI,Yu Gothic UI_MSFontService,sans-serif" font-weight="700" font-size="165" transform="matrix(1 0 0 1 804.573 752)">Q</text><path d="M1138 611.501C1138 589.685 1155.69 572 1177.5 572L1335.5 572C1357.31 572 1375 589.685 1375 611.501L1375 769.499C1375 791.315 1357.31 809 1335.5 809L1177.5 809C1155.69 809 1138 791.315 1138 769.499Z" stroke="#FFFFFF" stroke-width="27.5" stroke-miterlimit="8" fill="none" fill-rule="evenodd"/><text fill="#FFFFFF" font-family="Yu Gothic UI,Yu Gothic UI_MSFontService,sans-serif" font-weight="700" font-size="165" transform="matrix(1 0 0 1 1205.51 752)">R</text><path d="M749 1000.33C749 978.611 766.611 961 788.334 961L945.666 961C967.389 961 985 978.611 985 1000.33L985 1158.67C985 1180.39 967.389 1198 945.666 1198L788.334 1198C766.611 1198 749 1180.39 749 1158.67Z" stroke="#FFFFFF" stroke-width="27.5" stroke-miterlimit="8" fill="none" fill-rule="evenodd"/><text fill="#FFFFFF" font-family="Yu Gothic UI,Yu Gothic UI_MSFontService,sans-serif" font-weight="700" font-size="165" transform="matrix(1 0 0 1 818.896 1142)">P<tspan font-size="165" x="334.19" y="-83">i</tspan><tspan font-size="165" x="490.174" y="-83">r</tspan><tspan font-size="165" x="306.404" y="83">o</tspan><tspan font-size="165" x="472.7" y="83">n</tspan></text></g></svg>